<mxfile host="app.diagrams.net" modified="2022-03-16T03:15:10.761Z" agent="5.0 (Windows NT 10.0; Win64; x64) AppleWebKit/537.36 (KHTML, like Gecko) Chrome/96.0.4664.45 Safari/537.36" etag="CEP01Mx3NYIeX8S2pyD4" version="16.5.6" type="github">
  <diagram id="C5RBs43oDa-KdzZeNtuy" name="Page-1">
    <mxGraphModel dx="2249" dy="1931" grid="1" gridSize="10" guides="1" tooltips="1" connect="1" arrows="1" fold="1" page="1" pageScale="1" pageWidth="827" pageHeight="1169" math="0" shadow="0">
      <root>
        <mxCell id="WIyWlLk6GJQsqaUBKTNV-0" />
        <mxCell id="WIyWlLk6GJQsqaUBKTNV-1" parent="WIyWlLk6GJQsqaUBKTNV-0" />
        <mxCell id="7eyO9Ys8YFR0F45SlKn1-2" value="ERP系统" style="rounded=0;whiteSpace=wrap;html=1;fillColor=#f8cecc;strokeColor=#b85450;" vertex="1" parent="WIyWlLk6GJQsqaUBKTNV-1">
          <mxGeometry x="-570" y="380" width="120" height="60" as="geometry" />
        </mxCell>
        <mxCell id="7eyO9Ys8YFR0F45SlKn1-21" style="edgeStyle=orthogonalEdgeStyle;rounded=0;orthogonalLoop=1;jettySize=auto;html=1;entryX=0.5;entryY=0;entryDx=0;entryDy=0;" edge="1" parent="WIyWlLk6GJQsqaUBKTNV-1" source="7eyO9Ys8YFR0F45SlKn1-3" target="7eyO9Ys8YFR0F45SlKn1-15">
          <mxGeometry relative="1" as="geometry" />
        </mxCell>
        <mxCell id="7eyO9Ys8YFR0F45SlKn1-38" style="edgeStyle=orthogonalEdgeStyle;rounded=0;orthogonalLoop=1;jettySize=auto;html=1;entryX=1;entryY=0.5;entryDx=0;entryDy=0;" edge="1" parent="WIyWlLk6GJQsqaUBKTNV-1" source="7eyO9Ys8YFR0F45SlKn1-3" target="7eyO9Ys8YFR0F45SlKn1-4">
          <mxGeometry relative="1" as="geometry" />
        </mxCell>
        <mxCell id="7eyO9Ys8YFR0F45SlKn1-3" value="订单来源" style="rounded=0;whiteSpace=wrap;html=1;fillColor=#fff2cc;strokeColor=#d6b656;" vertex="1" parent="WIyWlLk6GJQsqaUBKTNV-1">
          <mxGeometry x="220" y="100" width="120" height="60" as="geometry" />
        </mxCell>
        <mxCell id="7eyO9Ys8YFR0F45SlKn1-7" style="edgeStyle=orthogonalEdgeStyle;rounded=0;orthogonalLoop=1;jettySize=auto;html=1;entryX=0;entryY=0.5;entryDx=0;entryDy=0;" edge="1" parent="WIyWlLk6GJQsqaUBKTNV-1" source="7eyO9Ys8YFR0F45SlKn1-4" target="7eyO9Ys8YFR0F45SlKn1-3">
          <mxGeometry relative="1" as="geometry">
            <Array as="points">
              <mxPoint x="70" y="130" />
            </Array>
          </mxGeometry>
        </mxCell>
        <mxCell id="7eyO9Ys8YFR0F45SlKn1-16" value="mq消息" style="edgeLabel;html=1;align=center;verticalAlign=middle;resizable=0;points=[];" vertex="1" connectable="0" parent="7eyO9Ys8YFR0F45SlKn1-7">
          <mxGeometry x="-0.6286" relative="1" as="geometry">
            <mxPoint x="57" as="offset" />
          </mxGeometry>
        </mxCell>
        <mxCell id="7eyO9Ys8YFR0F45SlKn1-4" value="订单中心" style="rounded=0;whiteSpace=wrap;html=1;fillColor=#f8cecc;strokeColor=#b85450;" vertex="1" parent="WIyWlLk6GJQsqaUBKTNV-1">
          <mxGeometry x="-50" y="100" width="120" height="60" as="geometry" />
        </mxCell>
        <mxCell id="7eyO9Ys8YFR0F45SlKn1-8" style="edgeStyle=orthogonalEdgeStyle;rounded=0;orthogonalLoop=1;jettySize=auto;html=1;entryX=0.5;entryY=0;entryDx=0;entryDy=0;" edge="1" parent="WIyWlLk6GJQsqaUBKTNV-1" source="7eyO9Ys8YFR0F45SlKn1-5" target="7eyO9Ys8YFR0F45SlKn1-3">
          <mxGeometry relative="1" as="geometry" />
        </mxCell>
        <mxCell id="7eyO9Ys8YFR0F45SlKn1-17" value="推送" style="edgeLabel;html=1;align=center;verticalAlign=middle;resizable=0;points=[];" vertex="1" connectable="0" parent="7eyO9Ys8YFR0F45SlKn1-8">
          <mxGeometry x="-0.1529" y="-1" relative="1" as="geometry">
            <mxPoint as="offset" />
          </mxGeometry>
        </mxCell>
        <mxCell id="7eyO9Ys8YFR0F45SlKn1-5" value="抖音" style="rounded=0;whiteSpace=wrap;html=1;fillColor=#d5e8d4;strokeColor=#82b366;" vertex="1" parent="WIyWlLk6GJQsqaUBKTNV-1">
          <mxGeometry x="220" y="-60" width="120" height="60" as="geometry" />
        </mxCell>
        <mxCell id="7eyO9Ys8YFR0F45SlKn1-9" style="edgeStyle=orthogonalEdgeStyle;rounded=0;orthogonalLoop=1;jettySize=auto;html=1;entryX=1;entryY=0.5;entryDx=0;entryDy=0;" edge="1" parent="WIyWlLk6GJQsqaUBKTNV-1" source="7eyO9Ys8YFR0F45SlKn1-6" target="7eyO9Ys8YFR0F45SlKn1-3">
          <mxGeometry relative="1" as="geometry">
            <Array as="points">
              <mxPoint x="490" y="130" />
            </Array>
          </mxGeometry>
        </mxCell>
        <mxCell id="7eyO9Ys8YFR0F45SlKn1-18" value="推送" style="edgeLabel;html=1;align=center;verticalAlign=middle;resizable=0;points=[];" vertex="1" connectable="0" parent="7eyO9Ys8YFR0F45SlKn1-9">
          <mxGeometry x="-0.6929" y="-2" relative="1" as="geometry">
            <mxPoint as="offset" />
          </mxGeometry>
        </mxCell>
        <mxCell id="7eyO9Ys8YFR0F45SlKn1-6" value="有赞" style="rounded=0;whiteSpace=wrap;html=1;fillColor=#d5e8d4;strokeColor=#82b366;" vertex="1" parent="WIyWlLk6GJQsqaUBKTNV-1">
          <mxGeometry x="430" y="-60" width="120" height="60" as="geometry" />
        </mxCell>
        <mxCell id="7eyO9Ys8YFR0F45SlKn1-10" value="" style="rounded=0;whiteSpace=wrap;html=1;fillColor=#ffe6cc;strokeColor=#d79b00;" vertex="1" parent="WIyWlLk6GJQsqaUBKTNV-1">
          <mxGeometry x="500" y="930" width="350" height="470" as="geometry" />
        </mxCell>
        <mxCell id="7eyO9Ys8YFR0F45SlKn1-11" value="库存系统" style="text;html=1;strokeColor=none;fillColor=none;align=center;verticalAlign=middle;whiteSpace=wrap;rounded=0;" vertex="1" parent="WIyWlLk6GJQsqaUBKTNV-1">
          <mxGeometry x="645" y="940" width="60" height="30" as="geometry" />
        </mxCell>
        <mxCell id="7eyO9Ys8YFR0F45SlKn1-12" value="库存查询" style="rounded=0;whiteSpace=wrap;html=1;fillColor=#f8cecc;strokeColor=#b85450;" vertex="1" parent="WIyWlLk6GJQsqaUBKTNV-1">
          <mxGeometry x="615" y="1000" width="120" height="60" as="geometry" />
        </mxCell>
        <mxCell id="7eyO9Ys8YFR0F45SlKn1-13" value="虚拟预占" style="rounded=0;whiteSpace=wrap;html=1;fillColor=#f8cecc;strokeColor=#b85450;" vertex="1" parent="WIyWlLk6GJQsqaUBKTNV-1">
          <mxGeometry x="615" y="1100" width="120" height="60" as="geometry" />
        </mxCell>
        <mxCell id="7eyO9Ys8YFR0F45SlKn1-14" value="真实预占" style="rounded=0;whiteSpace=wrap;html=1;fillColor=#f8cecc;strokeColor=#b85450;" vertex="1" parent="WIyWlLk6GJQsqaUBKTNV-1">
          <mxGeometry x="615" y="1210" width="120" height="60" as="geometry" />
        </mxCell>
        <mxCell id="7eyO9Ys8YFR0F45SlKn1-29" value="" style="edgeStyle=orthogonalEdgeStyle;rounded=0;orthogonalLoop=1;jettySize=auto;html=1;" edge="1" parent="WIyWlLk6GJQsqaUBKTNV-1" source="7eyO9Ys8YFR0F45SlKn1-15" target="7eyO9Ys8YFR0F45SlKn1-28">
          <mxGeometry relative="1" as="geometry" />
        </mxCell>
        <mxCell id="7eyO9Ys8YFR0F45SlKn1-39" style="edgeStyle=orthogonalEdgeStyle;rounded=0;orthogonalLoop=1;jettySize=auto;html=1;entryX=0.5;entryY=1;entryDx=0;entryDy=0;" edge="1" parent="WIyWlLk6GJQsqaUBKTNV-1" source="7eyO9Ys8YFR0F45SlKn1-15" target="7eyO9Ys8YFR0F45SlKn1-3">
          <mxGeometry relative="1" as="geometry" />
        </mxCell>
        <mxCell id="7eyO9Ys8YFR0F45SlKn1-15" value="销售管理" style="rounded=0;whiteSpace=wrap;html=1;fillColor=#f8cecc;strokeColor=#b85450;" vertex="1" parent="WIyWlLk6GJQsqaUBKTNV-1">
          <mxGeometry x="220" y="290" width="120" height="60" as="geometry" />
        </mxCell>
        <mxCell id="7eyO9Ys8YFR0F45SlKn1-26" style="edgeStyle=orthogonalEdgeStyle;rounded=0;orthogonalLoop=1;jettySize=auto;html=1;" edge="1" parent="WIyWlLk6GJQsqaUBKTNV-1" source="7eyO9Ys8YFR0F45SlKn1-23" target="7eyO9Ys8YFR0F45SlKn1-4">
          <mxGeometry relative="1" as="geometry">
            <Array as="points">
              <mxPoint x="-180" y="80" />
              <mxPoint x="-180" y="130" />
            </Array>
          </mxGeometry>
        </mxCell>
        <mxCell id="7eyO9Ys8YFR0F45SlKn1-23" value="茶城" style="rounded=0;whiteSpace=wrap;html=1;fillColor=#dae8fc;strokeColor=#6c8ebf;" vertex="1" parent="WIyWlLk6GJQsqaUBKTNV-1">
          <mxGeometry x="-380" y="50" width="120" height="60" as="geometry" />
        </mxCell>
        <mxCell id="7eyO9Ys8YFR0F45SlKn1-25" style="edgeStyle=orthogonalEdgeStyle;rounded=0;orthogonalLoop=1;jettySize=auto;html=1;" edge="1" parent="WIyWlLk6GJQsqaUBKTNV-1" source="7eyO9Ys8YFR0F45SlKn1-24" target="7eyO9Ys8YFR0F45SlKn1-4">
          <mxGeometry relative="1" as="geometry">
            <Array as="points">
              <mxPoint x="-180" y="170" />
              <mxPoint x="-180" y="130" />
            </Array>
          </mxGeometry>
        </mxCell>
        <mxCell id="7eyO9Ys8YFR0F45SlKn1-27" value="mq消息" style="edgeLabel;html=1;align=center;verticalAlign=middle;resizable=0;points=[];" vertex="1" connectable="0" parent="7eyO9Ys8YFR0F45SlKn1-25">
          <mxGeometry x="0.344" y="-2" relative="1" as="geometry">
            <mxPoint as="offset" />
          </mxGeometry>
        </mxCell>
        <mxCell id="7eyO9Ys8YFR0F45SlKn1-24" value="茶集" style="rounded=0;whiteSpace=wrap;html=1;fillColor=#dae8fc;strokeColor=#6c8ebf;" vertex="1" parent="WIyWlLk6GJQsqaUBKTNV-1">
          <mxGeometry x="-380" y="140" width="120" height="60" as="geometry" />
        </mxCell>
        <mxCell id="7eyO9Ys8YFR0F45SlKn1-31" value="" style="edgeStyle=orthogonalEdgeStyle;rounded=0;orthogonalLoop=1;jettySize=auto;html=1;" edge="1" parent="WIyWlLk6GJQsqaUBKTNV-1" source="7eyO9Ys8YFR0F45SlKn1-28" target="7eyO9Ys8YFR0F45SlKn1-30">
          <mxGeometry relative="1" as="geometry" />
        </mxCell>
        <mxCell id="7eyO9Ys8YFR0F45SlKn1-33" value="" style="edgeStyle=orthogonalEdgeStyle;rounded=0;orthogonalLoop=1;jettySize=auto;html=1;" edge="1" parent="WIyWlLk6GJQsqaUBKTNV-1" source="7eyO9Ys8YFR0F45SlKn1-28" target="7eyO9Ys8YFR0F45SlKn1-32">
          <mxGeometry relative="1" as="geometry" />
        </mxCell>
        <mxCell id="7eyO9Ys8YFR0F45SlKn1-28" value="是否总拣" style="rhombus;whiteSpace=wrap;html=1;rounded=0;" vertex="1" parent="WIyWlLk6GJQsqaUBKTNV-1">
          <mxGeometry x="235" y="480" width="90" height="80" as="geometry" />
        </mxCell>
        <mxCell id="7eyO9Ys8YFR0F45SlKn1-37" value="" style="edgeStyle=orthogonalEdgeStyle;rounded=0;orthogonalLoop=1;jettySize=auto;html=1;" edge="1" parent="WIyWlLk6GJQsqaUBKTNV-1" source="7eyO9Ys8YFR0F45SlKn1-30" target="7eyO9Ys8YFR0F45SlKn1-36">
          <mxGeometry relative="1" as="geometry" />
        </mxCell>
        <mxCell id="7eyO9Ys8YFR0F45SlKn1-30" value="分拣" style="whiteSpace=wrap;html=1;rounded=0;" vertex="1" parent="WIyWlLk6GJQsqaUBKTNV-1">
          <mxGeometry x="220" y="650" width="120" height="60" as="geometry" />
        </mxCell>
        <mxCell id="7eyO9Ys8YFR0F45SlKn1-35" style="edgeStyle=orthogonalEdgeStyle;rounded=0;orthogonalLoop=1;jettySize=auto;html=1;entryX=1;entryY=0.5;entryDx=0;entryDy=0;" edge="1" parent="WIyWlLk6GJQsqaUBKTNV-1" source="7eyO9Ys8YFR0F45SlKn1-32" target="7eyO9Ys8YFR0F45SlKn1-30">
          <mxGeometry relative="1" as="geometry">
            <Array as="points">
              <mxPoint x="490" y="680" />
            </Array>
          </mxGeometry>
        </mxCell>
        <mxCell id="7eyO9Ys8YFR0F45SlKn1-32" value="总拣" style="whiteSpace=wrap;html=1;rounded=0;" vertex="1" parent="WIyWlLk6GJQsqaUBKTNV-1">
          <mxGeometry x="430" y="490" width="120" height="60" as="geometry" />
        </mxCell>
        <mxCell id="7eyO9Ys8YFR0F45SlKn1-41" style="edgeStyle=orthogonalEdgeStyle;rounded=0;orthogonalLoop=1;jettySize=auto;html=1;entryX=0;entryY=0.5;entryDx=0;entryDy=0;" edge="1" parent="WIyWlLk6GJQsqaUBKTNV-1" source="7eyO9Ys8YFR0F45SlKn1-36" target="7eyO9Ys8YFR0F45SlKn1-40">
          <mxGeometry relative="1" as="geometry">
            <Array as="points">
              <mxPoint x="280" y="1350" />
            </Array>
          </mxGeometry>
        </mxCell>
        <mxCell id="7eyO9Ys8YFR0F45SlKn1-42" style="edgeStyle=orthogonalEdgeStyle;rounded=0;orthogonalLoop=1;jettySize=auto;html=1;entryX=0.5;entryY=1;entryDx=0;entryDy=0;" edge="1" parent="WIyWlLk6GJQsqaUBKTNV-1" source="7eyO9Ys8YFR0F45SlKn1-36" target="7eyO9Ys8YFR0F45SlKn1-4">
          <mxGeometry relative="1" as="geometry" />
        </mxCell>
        <mxCell id="7eyO9Ys8YFR0F45SlKn1-43" value="同步订单状态到订单中心" style="edgeLabel;html=1;align=center;verticalAlign=middle;resizable=0;points=[];" vertex="1" connectable="0" parent="7eyO9Ys8YFR0F45SlKn1-42">
          <mxGeometry x="0.2644" y="-4" relative="1" as="geometry">
            <mxPoint as="offset" />
          </mxGeometry>
        </mxCell>
        <mxCell id="7eyO9Ys8YFR0F45SlKn1-36" value="出库" style="whiteSpace=wrap;html=1;rounded=0;" vertex="1" parent="WIyWlLk6GJQsqaUBKTNV-1">
          <mxGeometry x="220" y="790" width="120" height="60" as="geometry" />
        </mxCell>
        <mxCell id="7eyO9Ys8YFR0F45SlKn1-40" value="扣除库存" style="rounded=0;whiteSpace=wrap;html=1;fillColor=#f8cecc;strokeColor=#b85450;" vertex="1" parent="WIyWlLk6GJQsqaUBKTNV-1">
          <mxGeometry x="615" y="1320" width="120" height="60" as="geometry" />
        </mxCell>
      </root>
    </mxGraphModel>
  </diagram>
</mxfile>
